<?xml version="1.0" encoding="utf-8"?><svg width="100%" height="100%" version="1.1" viewBox="163.8556 133.7917 548.2414 577.7006" style="background-color:#FFFFFF" xmlns:xlink="http://www.w3.org/1999/xlink" xmlns="http://www.w3.org/2000/svg"><defs /><g id="layer1"><path d="M271.8268 139 C241.7324 126.9622 175.3809 166.5667 171.3268 199 C165.9478 242.0318 231.2422 229.9348 242.8268 256 C259.0056 292.4022 119.1266 367.4812 184.252 382.6772 C226.408 392.5136 436.8695 345.0202 402.3268 271 C385.2609 234.4302 338.7478 238.0146 315.8268 210 C301.0336 191.9196 317.129 174.8145 313.8268 155 C311.252 139.5511 267.015 138.5792 258.3268 138" opacity="1" stroke="#000000" stroke-opacity="1" stroke-width="1" stroke-linecap="butt" stroke-linejoin="miter" stroke-dasharray="none" fill="#F70C0C" fill-opacity="1" /><path d="M602.3268 150.6732 C595.0593 133.2315 572.038 140.731 557.3268 143.6732 C526.7795 149.7827 494.153 165.748 490.8268 200.6732 C487.2343 238.3938 525.2013 248.5035 556.3268 255.1732 C569.2039 257.9326 592.7271 257.7743 596.8268 274.1732 C603.3799 300.386 480.1844 381.3876 564.8268 392.6732 C631.562 401.5712 750.8568 363.5012 694.3268 275.1732 C673.3146 242.3417 634.0127 234.3592 607.8268 208.1732 C591.5539 191.9003 621.5297 147.4444 590.3268 149.6732" opacity="1" stroke="#000000" stroke-opacity="1" stroke-width="1" stroke-linecap="butt" stroke-linejoin="miter" stroke-dasharray="none" fill="#1CF700" fill-opacity="1" /><path d="M388 495.5 C386.0401 475.9002 354.7039 485.2654 342 489.5 C294.6896 505.2702 238.0854 556.8483 287 602 C319.0634 631.5968 377.3068 623.1133 414 610.5 C432.5054 604.1387 457.3454 591.9534 455 568.5 C451.4736 533.2364 391.6958 541.7739 371.5 513.5 C361.6589 499.7225 410.5226 480.5648 386.5 493.5" opacity="1" stroke="#000000" stroke-opacity="1" stroke-width="1" stroke-linecap="butt" stroke-linejoin="miter" stroke-dasharray="none" fill="#0910E2" fill-opacity="1" /></g><g id="layer2"><path d="M435.8071 636.1142 C423.8126 631.7524 438.7298 598.4196 413.8071 586.6142 C341.0843 552.1668 301.9901 652.825 358.8071 696.1142 C379.4031 711.8064 412.2664 708.1141 436.3071 708.1141 C458.4713 708.1141 482.85 693.3665 493.3071 673.6141 C507.7568 646.3202 417.3395 643.8153 426.8071 629.6142" opacity="1" stroke="#000000" stroke-opacity="1" stroke-width="1" stroke-linecap="butt" stroke-linejoin="miter" stroke-dasharray="none" fill="#E51BC3" fill-opacity="1" /><ellipse cx="538.5827" cy="538.5827" rx="42.51968" ry="42.51968" opacity="1" stroke="#000000" stroke-opacity="1" stroke-width="1" stroke-linecap="butt" stroke-linejoin="miter" stroke-dasharray="none" fill="#F40404" fill-opacity="1" /></g></svg>